<mxfile host="Electron" modified="2024-05-30T09:57:52.662Z" agent="Mozilla/5.0 (Windows NT 10.0; Win64; x64) AppleWebKit/537.36 (KHTML, like Gecko) draw.io/24.4.0 Chrome/120.0.6099.109 Electron/28.1.0 Safari/537.36" etag="qL67BuTMWUuoD30NpXnL" version="24.4.0" type="device">
  <diagram name="Page-1" id="SsNnFlR7t8BGm8i1g8vN">
    <mxGraphModel dx="1050" dy="621" grid="1" gridSize="10" guides="1" tooltips="1" connect="1" arrows="1" fold="1" page="1" pageScale="1" pageWidth="850" pageHeight="1100" math="0" shadow="0">
      <root>
        <mxCell id="0" />
        <mxCell id="1" parent="0" />
        <mxCell id="YVl8qz3KRoCUB7CdXkq7-1" value="IRL Robot&lt;div&gt;physical unit&lt;/div&gt;" style="rounded=0;whiteSpace=wrap;html=1;" parent="1" vertex="1">
          <mxGeometry x="320" y="560" width="120" height="60" as="geometry" />
        </mxCell>
        <mxCell id="YVl8qz3KRoCUB7CdXkq7-10" style="edgeStyle=orthogonalEdgeStyle;rounded=0;orthogonalLoop=1;jettySize=auto;html=1;entryX=1;entryY=0.5;entryDx=0;entryDy=0;" parent="1" source="YVl8qz3KRoCUB7CdXkq7-2" target="YVl8qz3KRoCUB7CdXkq7-5" edge="1">
          <mxGeometry relative="1" as="geometry" />
        </mxCell>
        <mxCell id="YVl8qz3KRoCUB7CdXkq7-11" value="Normal controller" style="edgeLabel;html=1;align=center;verticalAlign=middle;resizable=0;points=[];" parent="YVl8qz3KRoCUB7CdXkq7-10" vertex="1" connectable="0">
          <mxGeometry x="-0.0507" y="1" relative="1" as="geometry">
            <mxPoint as="offset" />
          </mxGeometry>
        </mxCell>
        <mxCell id="YVl8qz3KRoCUB7CdXkq7-2" value="simulation robot 2" style="rounded=0;whiteSpace=wrap;html=1;" parent="1" vertex="1">
          <mxGeometry x="590" y="290" width="120" height="60" as="geometry" />
        </mxCell>
        <mxCell id="YVl8qz3KRoCUB7CdXkq7-7" style="edgeStyle=orthogonalEdgeStyle;rounded=0;orthogonalLoop=1;jettySize=auto;html=1;entryX=1;entryY=0.25;entryDx=0;entryDy=0;" parent="1" source="YVl8qz3KRoCUB7CdXkq7-3" target="YVl8qz3KRoCUB7CdXkq7-5" edge="1">
          <mxGeometry relative="1" as="geometry" />
        </mxCell>
        <mxCell id="YVl8qz3KRoCUB7CdXkq7-8" value="IRL Robot&lt;div&gt;controller&lt;/div&gt;" style="edgeLabel;html=1;align=center;verticalAlign=middle;resizable=0;points=[];" parent="YVl8qz3KRoCUB7CdXkq7-7" vertex="1" connectable="0">
          <mxGeometry x="-0.075" relative="1" as="geometry">
            <mxPoint as="offset" />
          </mxGeometry>
        </mxCell>
        <mxCell id="YVl8qz3KRoCUB7CdXkq7-3" value="simulation robot 1" style="rounded=0;whiteSpace=wrap;html=1;" parent="1" vertex="1">
          <mxGeometry x="590" y="200" width="120" height="60" as="geometry" />
        </mxCell>
        <mxCell id="YVl8qz3KRoCUB7CdXkq7-12" style="edgeStyle=orthogonalEdgeStyle;rounded=0;orthogonalLoop=1;jettySize=auto;html=1;entryX=1;entryY=0.75;entryDx=0;entryDy=0;" parent="1" source="YVl8qz3KRoCUB7CdXkq7-4" target="YVl8qz3KRoCUB7CdXkq7-5" edge="1">
          <mxGeometry relative="1" as="geometry" />
        </mxCell>
        <mxCell id="YVl8qz3KRoCUB7CdXkq7-13" value="Normal controller" style="edgeLabel;html=1;align=center;verticalAlign=middle;resizable=0;points=[];" parent="YVl8qz3KRoCUB7CdXkq7-12" vertex="1" connectable="0">
          <mxGeometry x="0.0044" y="2" relative="1" as="geometry">
            <mxPoint as="offset" />
          </mxGeometry>
        </mxCell>
        <mxCell id="YVl8qz3KRoCUB7CdXkq7-4" value="simulation robot 3" style="rounded=0;whiteSpace=wrap;html=1;" parent="1" vertex="1">
          <mxGeometry x="590" y="380" width="120" height="60" as="geometry" />
        </mxCell>
        <mxCell id="YVl8qz3KRoCUB7CdXkq7-14" style="edgeStyle=orthogonalEdgeStyle;rounded=0;orthogonalLoop=1;jettySize=auto;html=1;entryX=0.5;entryY=0;entryDx=0;entryDy=0;" parent="1" source="YVl8qz3KRoCUB7CdXkq7-5" target="YVl8qz3KRoCUB7CdXkq7-16" edge="1">
          <mxGeometry relative="1" as="geometry">
            <mxPoint x="380" y="430" as="targetPoint" />
          </mxGeometry>
        </mxCell>
        <mxCell id="YVl8qz3KRoCUB7CdXkq7-15" value="Path planned tasks from IRL&amp;nbsp;&lt;div&gt;Robot controller via ROS&lt;/div&gt;" style="edgeLabel;html=1;align=center;verticalAlign=middle;resizable=0;points=[];" parent="YVl8qz3KRoCUB7CdXkq7-14" vertex="1" connectable="0">
          <mxGeometry y="-1" relative="1" as="geometry">
            <mxPoint as="offset" />
          </mxGeometry>
        </mxCell>
        <mxCell id="MVCBV7GHekkD0hXEiMIQ-1" style="edgeStyle=orthogonalEdgeStyle;rounded=0;orthogonalLoop=1;jettySize=auto;html=1;entryX=1;entryY=0.5;entryDx=0;entryDy=0;" edge="1" parent="1" source="YVl8qz3KRoCUB7CdXkq7-5" target="YVl8qz3KRoCUB7CdXkq7-3">
          <mxGeometry relative="1" as="geometry">
            <mxPoint x="460" y="100" as="targetPoint" />
            <Array as="points">
              <mxPoint x="380" y="140" />
              <mxPoint x="730" y="140" />
              <mxPoint x="730" y="230" />
            </Array>
          </mxGeometry>
        </mxCell>
        <mxCell id="MVCBV7GHekkD0hXEiMIQ-2" style="edgeStyle=orthogonalEdgeStyle;rounded=0;orthogonalLoop=1;jettySize=auto;html=1;entryX=1;entryY=0.5;entryDx=0;entryDy=0;" edge="1" parent="1" source="YVl8qz3KRoCUB7CdXkq7-5" target="YVl8qz3KRoCUB7CdXkq7-2">
          <mxGeometry relative="1" as="geometry">
            <Array as="points">
              <mxPoint x="380" y="140" />
              <mxPoint x="730" y="140" />
              <mxPoint x="730" y="320" />
            </Array>
          </mxGeometry>
        </mxCell>
        <mxCell id="MVCBV7GHekkD0hXEiMIQ-3" style="edgeStyle=orthogonalEdgeStyle;rounded=0;orthogonalLoop=1;jettySize=auto;html=1;entryX=1;entryY=0.5;entryDx=0;entryDy=0;" edge="1" parent="1" source="YVl8qz3KRoCUB7CdXkq7-5" target="YVl8qz3KRoCUB7CdXkq7-4">
          <mxGeometry relative="1" as="geometry">
            <Array as="points">
              <mxPoint x="380" y="140" />
              <mxPoint x="730" y="140" />
              <mxPoint x="730" y="410" />
            </Array>
          </mxGeometry>
        </mxCell>
        <mxCell id="YVl8qz3KRoCUB7CdXkq7-5" value="server" style="rounded=0;whiteSpace=wrap;html=1;" parent="1" vertex="1">
          <mxGeometry x="320" y="290" width="120" height="60" as="geometry" />
        </mxCell>
        <mxCell id="YVl8qz3KRoCUB7CdXkq7-17" style="edgeStyle=orthogonalEdgeStyle;rounded=0;orthogonalLoop=1;jettySize=auto;html=1;entryX=0.5;entryY=0;entryDx=0;entryDy=0;" parent="1" source="YVl8qz3KRoCUB7CdXkq7-16" target="YVl8qz3KRoCUB7CdXkq7-1" edge="1">
          <mxGeometry relative="1" as="geometry" />
        </mxCell>
        <mxCell id="YVl8qz3KRoCUB7CdXkq7-18" value="tasks from software&lt;div&gt;to IRL Robot&lt;/div&gt;" style="edgeLabel;html=1;align=center;verticalAlign=middle;resizable=0;points=[];" parent="YVl8qz3KRoCUB7CdXkq7-17" vertex="1" connectable="0">
          <mxGeometry x="-0.3333" y="-2" relative="1" as="geometry">
            <mxPoint x="2" y="10" as="offset" />
          </mxGeometry>
        </mxCell>
        <mxCell id="YVl8qz3KRoCUB7CdXkq7-16" value="GETrequests via&lt;div&gt;IRL Robot software&lt;/div&gt;" style="rounded=0;whiteSpace=wrap;html=1;" parent="1" vertex="1">
          <mxGeometry x="320" y="430" width="120" height="60" as="geometry" />
        </mxCell>
      </root>
    </mxGraphModel>
  </diagram>
</mxfile>
